# xmcd
#
# Track frame offsets: 
#        150
#        16249
#        36174
#        55342
#        78755
#        90520
#        110700
#        122797
#        144418
#        163348
#        181659
#        199510
#        221305
#        255049
#
# Disc length: 4440 seconds
#
# Revision: 9
# Processed by: cddbd v1.5.1PL0 Copyright (c) Steve Scherf et al.
# Submitted via: ExactAudioCopy v0.95a5
#
DISCID=ad11560e
DTITLE=Lenny Kravitz - Baptism
DYEAR=2004
DGENRE=Rock
TTITLE0=Minister Of Rock 'n' Roll
TTITLE1=I Don't Want To Be A Star
TTITLE2=Lady
TTITLE3=Calling All Angels
TTITLE4=California
TTITLE5=Sistamamalover
TTITLE6=Where Are We Runnin'?
TTITLE7=Baptized
TTITLE8=Flash
TTITLE9=What Did I Do With My Life?
TTITLE10=Storm (featuring Jay-Z)
TTITLE11=The Other Side
TTITLE12=Destiny
TTITLE13=Data Track
EXTD=YEAR: 2004
EXTT0=
EXTT1=
EXTT2=
EXTT3=
EXTT4=
EXTT5=
EXTT6=
EXTT7=
EXTT8=
EXTT9=
EXTT10=
EXTT11=
EXTT12=
EXTT13=
PLAYORDER=
